<?xml version="1.0" standalone="no"?><!DOCTYPE svg PUBLIC "-//W3C//DTD SVG 1.1//EN" "http://www.w3.org/Graphics/SVG/1.1/DTD/svg11.dtd"><svg t="1705979962132" class="icon" viewBox="0 0 1024 1024" version="1.1" xmlns="http://www.w3.org/2000/svg" p-id="32804" xmlns:xlink="http://www.w3.org/1999/xlink" width="200" height="200"><path d="M455.736889 485.546667c-86.072889 4.124444-155.591111 50.460444-155.591111 108.373333s69.518222 101.774222 155.591111 97.649778c86.044444-4.152889 155.562667-58.766222 155.562667-116.679111-0.853333-57.088-70.343111-93.496889-155.591112-89.372445z m57.912889 146.432c-26.453333 34.759111-78.592 51.313778-129.080889 23.182222-24.007111-13.255111-23.182222-38.912-23.182222-38.912s-9.927111-81.92 76.145777-91.847111c86.869333-10.752 102.599111 72.817778 76.117334 107.576889z" fill="#EA5D5C" p-id="32805"></path><path d="M455.736889 576.568889a12.145778 12.145778 0 0 0-3.328 16.497778c2.503111 4.977778 9.955556 5.831111 14.904889 1.706666 4.977778-4.152889 7.452444-11.605333 4.152889-16.583111-2.503111-4.949333-9.102222-5.774222-15.729778-1.649778z m-40.561778 11.548444c-16.526222 1.678222-27.306667 15.729778-27.306667 29.809778 0 13.226667 13.255111 23.153778 28.984889 21.504 15.701333-1.649778 28.956444-14.08 28.956445-28.16 0-14.051556-12.430222-24.803556-30.634667-23.153778z" fill="#EA5D5C" p-id="32806"></path><path d="M512 56.888889C260.437333 56.888889 56.888889 260.437333 56.888889 512c0 251.562667 203.548444 455.111111 455.111111 455.111111 251.562667 0 455.111111-203.548444 455.111111-455.111111 0-251.562667-203.548444-455.111111-455.111111-455.111111z m175.416889 556.885333c-35.555556 76.145778-152.234667 113.379556-238.307556 106.752-81.92-6.627556-187.847111-33.934222-198.599111-134.883555 0 0-5.774222-45.511111 38.058667-104.248889 0 0 62.890667-88.547556 135.708444-114.204445 73.671111-24.832 81.92 17.379556 81.92 43.036445-4.124444 21.504-10.752 33.934222 16.554667 25.656889 0 0 71.992889-33.934222 101.774222-4.152889 24.007111 24.007111 4.152889 57.941333 4.152889 57.941333s-9.955556 10.752 10.752 14.876445c19.057778 3.328 83.569778 33.109333 47.985778 109.226666z m-71.168-210.176a14.506667 14.506667 0 0 1-14.051556-14.051555 13.937778 13.937778 0 0 1 14.051556-14.08s88.547556-16.554667 77.795555 79.445333v1.649778a14.307556 14.307556 0 0 1-14.08 12.401778 13.937778 13.937778 0 0 1-14.051555-14.051556c0-1.649778 14.051556-65.365333-49.664-51.313778z m149.788444 91.875556c-2.474667 16.526222-10.752 9.898667-19.854222 9.898666-11.605333 0-20.707556-14.876444-20.707555-26.453333 0-9.955556 4.152889-19.882667 4.152888-19.882667 0.824889-4.124444 10.752-30.606222-6.627555-69.489777-31.431111-53.788444-94.321778-53.788444-101.774222-51.313778-7.452444 3.299556-19.057778 4.949333-19.057778 4.949333a20.48 20.48 0 0 1-20.650667-20.679111c0-9.927111 6.599111-17.351111 14.876445-19.854222 0 0 0 0.853333 0.853333 0.853333 0.796444 0 1.649778 0.796444 1.649778 0.796445 9.102222-1.649778 40.533333-4.124444 70.314666 3.328 55.466667 13.226667 129.934222 74.467556 96.824889 187.818666z" fill="#EA5D5C" p-id="32807"></path></svg>