<?xml version="1.0" standalone="no"?><!DOCTYPE svg PUBLIC "-//W3C//DTD SVG 1.1//EN" "http://www.w3.org/Graphics/SVG/1.1/DTD/svg11.dtd"><svg t="1705990203506" class="icon" viewBox="0 0 1024 1024" version="1.1" xmlns="http://www.w3.org/2000/svg" p-id="6957" xmlns:xlink="http://www.w3.org/1999/xlink" width="200" height="200"><path d="M179.672615 577.142154a339.337846 339.337846 0 0 1 57.954462-197.907692 329.924923 329.924923 0 0 1 162.835692-126.03077 258.894769 258.894769 0 0 1-37.848615-35.584 114.628923 114.628923 0 0 1-20.814769-127.054769c5.494154-12.406154 8.270769-12.760615 19.180307-4.411077a95.015385 95.015385 0 0 0 41.511385 14.769231c17.211077 3.387077 34.579692 5.907692 51.534769 10.496a94.129231 94.129231 0 0 1 66.756923 60.790154c1.063385 2.835692 2.205538 5.632 3.347693 8.408615 0 0.216615 0.531692 0.275692 1.96923 0.964923 1.654154-4.903385 3.249231-9.846154 4.94277-14.592a250.702769 250.702769 0 0 1 37.789538-73.353846 12.760615 12.760615 0 0 1 18.176-4.352 246.153846 246.153846 0 0 1 58.663385 36.962462 70.045538 70.045538 0 0 1 10.67323 12.091077c4.273231 6.144 2.540308 10.909538-4.804923 13.016615-42.476308 12.228923-66.481231 43.815385-85.208615 81.033846-3.150769 6.281846 0.807385 6.281846 5.139692 7.128615a328.329846 328.329846 0 0 1 158.542769 76.307693 323.485538 323.485538 0 0 1 112.994462 248.123077v12.268307c4.155077 0.748308 4.923077-3.072 6.793846-4.942769a60.278154 60.278154 0 0 1 31.054769-18.038154 38.301538 38.301538 0 0 1 44.347077 53.720616 79.163077 79.163077 0 0 1-75.874461 51.2 26.820923 26.820923 0 0 0-28.396308 21.287384 320.787692 320.787692 0 0 1-189.853538 190.28677c-7.286154 2.855385-10.712615 5.789538-9.393231 14.434461a61.380923 61.380923 0 0 1-4.194462 32.787692 43.52 43.52 0 0 1-39.758769 26.505847 29.026462 29.026462 0 0 1-25.934769-15.044924 116.007385 116.007385 0 0 1-6.734769-16.836923c-2.402462-6.518154 0.728615-16.108308-4.883693-19.534769-4.824615-2.953846-13.056-0.196923-19.692307-0.196923a241.152 241.152 0 0 1-29.321847-0.571077c-7.522462-0.925538-8.96 1.772308-9.629538 8.310154a43.854769 43.854769 0 0 1-33.181538 42.279385 31.507692 31.507692 0 0 1-40.487385-20.795077 97.417846 97.417846 0 0 1-5.809231-37.809231 12.406154 12.406154 0 0 0-9.609846-13.784615 324.923077 324.923077 0 0 1-172.583385-151.63077 251.195077 251.195077 0 0 1-21.563077-50.077538 10.358154 10.358154 0 0 0-12.032-8.782769 92.553846 92.553846 0 0 1-73.255384-28.081231 60.652308 60.652308 0 0 1-17.880616-40.763077 34.225231 34.225231 0 0 1 18.235077-32.630154 41.019077 41.019077 0 0 1 40.704-0.137846 80.403692 80.403692 0 0 1 25.6 19.771077z m16.699077-15.202462a315.588923 315.588923 0 1 0 322.953846-312.398769 313.777231 313.777231 0 0 0-322.953846 312.398769z m306.825846-333.922461a125.321846 125.321846 0 0 0-66.205538-41.353846c-5.632-0.905846-12.366769-2.678154-11.126154-10.358154s8.093538-7.089231 13.784616-6.340923a98.166154 98.166154 0 0 1 33.083076 11.815384 176.561231 176.561231 0 0 1 39.384616 30.818462 86.055385 86.055385 0 0 0-72.270769-88.477539 330.043077 330.043077 0 0 1-81.99877-20.499692c-4.745846-2.343385-5.336615 0.866462-6.183384 3.465846a91.451077 91.451077 0 0 0 1.575384 65.831385 159.094154 159.094154 0 0 0 55.138462 65.811692 16.029538 16.029538 0 0 0 15.753846 2.875077 333.961846 333.961846 0 0 1 45.292308-9.531077 166.459077 166.459077 0 0 0 33.772307-4.056615zM178.116923 646.222769c13.174154 0.551385 12.996923 0.472615 11.008-10.102154a130.087385 130.087385 0 0 0-18.707692-48.56123 48.187077 48.187077 0 0 0-32.334769-21.543385 24.32 24.32 0 0 0-28.711385 31.271385 54.252308 54.252308 0 0 0 8.723692 19.140923 78.375385 78.375385 0 0 0 60.022154 29.794461z m663.965539 0.531693c5.651692-0.768 11.401846-1.161846 16.955076-2.422154a66.422154 66.422154 0 0 0 55.256616-47.143385 23.256615 23.256615 0 0 0-18.077539-30.641231 36.568615 36.568615 0 0 0-33.96923 11.264 104.881231 104.881231 0 0 0-28.041847 59.076923c-1.772308 8.211692-0.118154 10.673231 7.876924 9.865847z m-232.861539 245.16923c0.413538-11.815385-1.161846-13.075692-12.169846-10.476307-7.876923 1.851077-15.753846 3.643077-23.630769 5.316923-20.164923 4.253538-20.558769 4.923077-14.001231 25.245538a60.455385 60.455385 0 0 0 2.914461 7.522462 16.088615 16.088615 0 0 0 19.692308 9.846154 34.048 34.048 0 0 0 27.195077-37.45477z m-193.575385-1.181538a67.682462 67.682462 0 0 0 4.489847 23.630769 22.016 22.016 0 0 0 39.207384 5.907692 38.006154 38.006154 0 0 0 8.743385-22.094769c0.571077-6.183385-1.339077-9.156923-7.876923-10.141538a531.987692 531.987692 0 0 1-33.476923-6.616616c-11.559385-2.619077-11.52-2.776615-11.08677 9.314462z" fill="#76120C" p-id="6958"></path><path d="M718.946462 325.572923a319.153231 319.153231 0 0 0-199.601231-76.051692A316.849231 316.849231 0 0 0 234.259692 413.538462a297.353846 297.353846 0 0 0-17.152 36.608 301.095385 301.095385 0 0 0-15.556923 53.897846 293.809231 293.809231 0 0 0-5.218461 57.875692 310.252308 310.252308 0 0 0 74.830769 204.307692 316.297846 316.297846 0 0 0 521.334154-238.493538 309.720615 309.720615 0 0 0-73.550769-202.161231z m-429.036308 183.138462a42.200615 42.200615 0 0 1-37.277539 36.509538 21.956923 21.956923 0 0 1-22.488615-24.989538 55.138462 55.138462 0 0 1 3.800615-14.788923 42.436923 42.436923 0 0 1 17.506462-20.066462 39.502769 39.502769 0 0 1 4.450461-2.441846 22.921846 22.921846 0 0 1 34.008616 25.757538z m37.218461-26.820923a44.425846 44.425846 0 0 1-58.052923-33.831385 61.282462 61.282462 0 0 1-1.181538-13.784615 91.825231 91.825231 0 0 1 63.330461-81.979077 54.685538 54.685538 0 0 1 23.158154-1.240616 44.544 44.544 0 0 1 36.332308 44.819693 93.184 93.184 0 0 1-63.586462 86.035692z m139.244308 78.946461a67.072 67.072 0 0 0-20.952615 1.595077 5.336615 5.336615 0 0 1-7.483077-2.973538 5.750154 5.750154 0 0 1 3.938461-8.01477c3.150769-1.201231 6.360615-2.067692 9.964308-3.268923-1.122462-3.938462-4.096-4.273231-6.242462-5.691077a5.907692 5.907692 0 0 1-2.500923-8.546461 5.435077 5.435077 0 0 1 7.876923-1.792 54.823385 54.823385 0 0 1 18.451693 14.552615 27.982769 27.982769 0 0 1 2.619077 3.682462c3.800615 6.183385 1.831385 10.141538-5.041231 10.377846a1.969231 1.969231 0 0 1-0.630154 0.098461z m50.038154 43.027692a18.136615 18.136615 0 0 1-17.033846-14.532923c-0.354462-3.032615-0.472615-6.459077 3.209846-7.483077a6.715077 6.715077 0 0 1 7.719385 3.328c6.124308 9.432615 7.246769 9.491692 12.406153 0.177231 1.299692-2.323692 2.619077-3.938462 5.277539-3.564308a5.710769 5.710769 0 0 1 4.923077 5.513847 16.068923 16.068923 0 0 1-16.502154 16.580923z m69.986461-45.469538a5.415385 5.415385 0 0 1-7.778461 3.938461 60.888615 60.888615 0 0 0-20.952615-1.536 6.852923 6.852923 0 0 1-7.069539-2.855384 6.656 6.656 0 0 1 1.595077-8.251077 66.579692 66.579692 0 0 1 17.860923-16.029539c3.446154-1.969231 7.483077-4.745846 10.614154 0.118154s-0.886154 8.014769-4.273231 10.732308a13.607385 13.607385 0 0 1-4.391384 1.476923 13.272615 13.272615 0 0 0 9.019076 5.277539c3.721846 0.905846 6.321231 3.052308 5.277539 7.148307z" fill="#FD9917" p-id="6959"></path><path d="M827.490462 562.648615a316.219077 316.219077 0 0 1-556.228924 203.59877A316.317538 316.317538 0 0 0 792.595692 527.753846a309.76 309.76 0 0 0-73.668923-202.180923 309.444923 309.444923 0 0 1 108.563693 237.075692z" fill="#EF6700" p-id="6960"></path><path d="M503.197538 228.017231a166.104615 166.104615 0 0 1-33.476923 4.076307 335.497846 335.497846 0 0 0-45.292307 9.531077 16.029538 16.029538 0 0 1-15.753846-2.855384 159.153231 159.153231 0 0 1-55.138462-65.811693 91.470769 91.470769 0 0 1-1.575385-65.831384c0.846769-2.599385 1.437538-5.789538 6.183385-3.465846a330.24 330.24 0 0 0 81.998769 20.499692 86.055385 86.055385 0 0 1 72.270769 88.477538 176.620308 176.620308 0 0 0-39.384615-30.838153 98.461538 98.461538 0 0 0-33.102769-11.815385c-5.730462-0.748308-12.583385-1.319385-13.784616 6.340923s5.494154 9.432615 11.126154 10.338462a125.282462 125.282462 0 0 1 65.929846 41.353846z" fill="#5FC519" p-id="6961"></path><path d="M178.136615 646.242462a78.375385 78.375385 0 0 1-60.022153-29.814154 54.134154 54.134154 0 0 1-8.723693-19.121231 24.339692 24.339692 0 0 1 28.711385-31.271385 48.246154 48.246154 0 0 1 32.354461 21.543385 130.185846 130.185846 0 0 1 18.707693 48.561231c1.949538 10.535385 2.225231 10.633846-11.027693 10.102154z" fill="#FD9917" p-id="6962"></path><path d="M842.082462 646.754462c-7.995077 0.807385-9.649231-1.654154-7.876924-9.846154a104.881231 104.881231 0 0 1 28.041847-59.076923 36.568615 36.568615 0 0 1 33.96923-11.264 23.256615 23.256615 0 0 1 18.077539 30.64123 66.422154 66.422154 0 0 1-55.256616 47.143385c-5.553231 1.240615-11.303385 1.634462-16.955076 2.402462z" fill="#FD9917" p-id="6963"></path><path d="M609.201231 891.923692a34.067692 34.067692 0 0 1-27.096616 37.415385 16.108308 16.108308 0 0 1-19.692307-9.846154 61.321846 61.321846 0 0 1-2.914462-7.542154c-6.577231-20.302769-6.163692-20.972308 14.001231-25.245538 7.876923-1.654154 15.753846-3.446154 23.630769-5.316923 10.909538-2.540308 12.484923-1.240615 12.071385 10.535384z" fill="#FD9917" p-id="6964"></path><path d="M415.645538 890.742154c-0.433231-12.091077-0.452923-11.913846 11.08677-9.373539 11.126154 2.461538 22.311385 4.883692 33.476923 6.616616 6.459077 1.004308 8.369231 3.938462 7.876923 10.161231a38.006154 38.006154 0 0 1-8.743385 22.094769 22.016 22.016 0 0 1-39.207384-5.907693 67.761231 67.761231 0 0 1-4.489847-23.591384z" fill="#FD9917" p-id="6965"></path><path d="M267.894154 434.274462a91.746462 91.746462 0 0 1 63.310769-81.959385 44.859077 44.859077 0 0 1 59.470769 43.52 93.164308 93.164308 0 0 1-63.527384 86.094769 45.154462 45.154462 0 0 1-59.254154-47.655384z" fill="#FEFDFD" p-id="6966"></path><path d="M252.612923 545.240615a21.937231 21.937231 0 0 1-22.488615-25.00923 44.760615 44.760615 0 0 1 25.737846-37.257847 22.961231 22.961231 0 0 1 34.048 25.777231 42.24 42.24 0 0 1-37.297231 36.489846z" fill="#FEFDFD" p-id="6967"></path><path d="M451.780923 548.233846c-1.161846-3.938462-4.115692-4.292923-6.262154-5.730461a5.769846 5.769846 0 0 1-2.461538-8.52677 5.395692 5.395692 0 0 1 7.876923-1.772307 51.377231 51.377231 0 0 1 21.051077 18.195692c3.938462 6.360615 1.752615 10.417231-5.632 10.436923a67.288615 67.288615 0 0 0-20.952616 1.614769 5.297231 5.297231 0 0 1-7.463384-2.973538 5.750154 5.750154 0 0 1 3.938461-8.014769c3.111385-1.122462 6.301538-2.067692 9.905231-3.229539z" fill="#76120C" p-id="6968"></path><path d="M572.041846 546.126769a13.095385 13.095385 0 0 0 8.999385 5.277539c3.702154 0.807385 6.321231 2.914462 5.356307 7.010461a5.435077 5.435077 0 0 1-7.876923 4.056616 59.451077 59.451077 0 0 0-20.952615-1.555693 6.833231 6.833231 0 0 1-7.030154-2.855384 6.675692 6.675692 0 0 1 1.614769-8.231385 65.555692 65.555692 0 0 1 17.860923-16.068923c3.446154-1.870769 7.483077-4.745846 10.57477 0.137846s-0.846769 8.054154-4.273231 10.771692a14.375385 14.375385 0 0 1-4.273231 1.457231z" fill="#76120C" p-id="6969"></path><path d="M516.489846 603.864615a18.077538 18.077538 0 0 1-17.053538-14.51323c-0.334769-3.012923-0.472615-6.459077 3.229538-7.463385a6.636308 6.636308 0 0 1 7.699692 3.308308c6.144 9.452308 7.266462 9.472 12.386462 0.196923 1.299692-2.363077 2.638769-3.938462 5.297231-3.564308a5.730462 5.730462 0 0 1 4.942769 5.533539 16.068923 16.068923 0 0 1-16.502154 16.502153z" fill="#76120C" p-id="6970"></path></svg>