<?xml version="1.0" standalone="no"?><!DOCTYPE svg PUBLIC "-//W3C//DTD SVG 1.1//EN" "http://www.w3.org/Graphics/SVG/1.1/DTD/svg11.dtd"><svg t="1705979601347" class="icon" viewBox="0 0 1024 1024" version="1.1" xmlns="http://www.w3.org/2000/svg" p-id="12676" xmlns:xlink="http://www.w3.org/1999/xlink" width="200" height="200"><path d="M512 0a512 512 0 1 0 512 512A512 512 0 0 0 512 0zM395.776 628.224l-18.944 77.824A250.88 250.88 0 0 1 256 492.032a269.824 269.824 0 0 1 6.656-57.856 105.472 105.472 0 0 1-26.112-66.56 94.72 94.72 0 0 1 189.952 0A93.696 93.696 0 0 1 334.336 460.8a218.624 218.624 0 0 0-2.56 29.696 180.736 180.736 0 0 0 64 137.728z m200.704 98.816a94.208 94.208 0 0 1-87.552 57.856 94.72 94.72 0 0 1-95.232-94.72 95.232 95.232 0 0 1 180.224-41.984 177.152 177.152 0 0 0 94.208-148.48l73.728-27.136a71.68 71.68 0 0 1 0 16.896 256 256 0 0 1-165.376 237.568z m188.416-354.304a94.72 94.72 0 0 1-95.744 94.208 94.72 94.72 0 0 1-95.232-95.232 102.4 102.4 0 0 1 6.656-33.792A175.616 175.616 0 0 0 512 313.856a187.904 187.904 0 0 0-57.344 9.728L409.6 260.096a246.272 246.272 0 0 1 102.4-20.992 251.392 251.392 0 0 1 143.36 45.056 87.04 87.04 0 0 1 34.304-7.168 94.72 94.72 0 0 1 95.232 94.72z" fill="#7393D5" p-id="12677"></path></svg>