<?xml version="1.0" standalone="no"?><!DOCTYPE svg PUBLIC "-//W3C//DTD SVG 1.1//EN" "http://www.w3.org/Graphics/SVG/1.1/DTD/svg11.dtd"><svg t="1705979733530" class="icon" viewBox="0 0 1024 1024" version="1.1" xmlns="http://www.w3.org/2000/svg" p-id="15569" xmlns:xlink="http://www.w3.org/1999/xlink" width="200" height="200"><path d="M861.525333 920.007111a31.516444 31.516444 0 0 0 0-62.976H161.507556a31.516444 31.516444 0 1 0 0 62.976h700.017777z" fill="#4388E7" p-id="15570"></path><path d="M855.722667 105.016889a69.404444 69.404444 0 0 1 70.257777 69.404444v456.590223c0 38.912-31.288889 70.997333-70.257777 70.997333H168.277333a70.712889 70.712889 0 0 1-70.257777-70.997333V174.421333c0-38.912 31.288889-69.404444 70.257777-69.404444h687.445334zM157.582222 482.190222c5.176889 5.233778 12.344889 8.476444 20.252445 8.476445h117.76l95.061333 103.708444 160.426667-257.706667 78.506666 152.234667h216.689778a28.330667 28.330667 0 0 0 28.444445-28.444444 28.444444 28.444444 0 0 0-28.444445-28.444445h-181.987555l-108.544-210.488889-173.738667 279.210667-61.326222-66.958222H177.777778a28.444444 28.444444 0 0 0-20.252445 48.469333z" fill="#4388E7" p-id="15571"></path></svg>