<?xml version="1.0" standalone="no"?><!DOCTYPE svg PUBLIC "-//W3C//DTD SVG 1.1//EN" "http://www.w3.org/Graphics/SVG/1.1/DTD/svg11.dtd"><svg t="1705980058318" class="icon" viewBox="0 0 1024 1024" version="1.1" xmlns="http://www.w3.org/2000/svg" p-id="38750" xmlns:xlink="http://www.w3.org/1999/xlink" width="200" height="200"><path d="M512 0c282.752 0 512 229.12 512 512s-229.12 512-512 512C229.376 1024 0 794.624 0 512 0 229.12 229.12 0 512 0z m32.298667 604.672c17.365333-34.048 52.096-60.074667 91.178666-72.106667l28.245334-56.064c-2.176-4.010667-4.352-8.021333-4.352-12.032-2.176-4.010667-2.176-10.026667-4.352-14.037333-17.365333-3.968-28.245333-11.989333-34.730667-24.021333-10.88-20.053333 2.133333-48.042667 28.202667-72.106667-17.365333-22.016-39.082667-40.021333-62.933334-56.064-26.026667 26.026667-54.272 38.058667-75.989333 30.037333-23.893333-8.021333-34.730667-36.053333-34.730667-70.101333-28.245333-4.010667-58.624-2.005333-86.869333 2.005333 2.176 38.058667-8.661333 66.133333-30.378667 76.117334-23.893333 8.021333-52.138667-2.005333-80.341333-26.026667-23.893333 16-43.434667 36.053333-60.8 58.026667 28.245333 24.064 41.258667 50.090667 32.554667 70.144-8.661333 22.016-39.04 32-75.946667 32-4.352 26.069333-2.176 54.101333 2.133333 80.128 36.906667-2.005333 67.328 8.021333 78.165334 28.074666 10.88 20.010667-2.133333 48.042667-28.202667 72.106667 17.365333 22.016 39.082667 40.021333 62.933333 56.064 26.069333-26.026667 54.314667-38.058667 75.989334-30.037333 23.893333 7.978667 34.773333 36.010667 34.773333 70.058666 28.202667 4.010667 58.581333 2.005333 86.826667-2.005333-2.133333-34.048 8.704-62.08 30.378666-72.106667 2.176-1.962667 6.528-1.962667 8.704-1.962666 4.352-22.058667 8.661333-46.08 19.541334-66.133334z m-108.202667 30.592c-61.226667 0-113.706667-50.346667-113.706667-113.792a112.981333 112.981333 0 0 1 113.706667-113.749333 112.981333 112.981333 0 0 1 113.749333 113.749333c2.218667 63.445333-50.304 113.792-113.749333 113.792z m399.061333-269.141333l-36.693333 60.458666-66.858667-30.250666 28.032-64.469334c-32.341333 2.005333-64.725333 18.133333-79.786666 48.384-15.146667 30.208-10.837333 66.474667 10.752 90.666667l-53.930667 104.789333c-32.341333 2.048-62.549333 18.133333-77.653333 48.384-15.104 30.208-10.794667 62.464 8.618666 88.661334l40.96-64.469334 66.901334 30.208-30.208 70.570667c32.384-2.048 64.725333-18.176 79.829333-48.384 15.104-30.250667 10.794667-64.512-10.794667-90.709333l53.930667-104.789334c32.384-2.005333 62.592-18.133333 77.653333-48.384 12.970667-32.213333 8.661333-66.474667-10.752-90.666666z" fill="#34B369" p-id="38751"></path></svg>